{"title":"Fight Club (1999) [Supplementary Audio for Yify Rips]","uid":9797319,"size":400860513,"categoryP":"video","categoryS":"hd___movies","magnet":"?xt=urn:btih:a9c8938f1d57bcee027c76ae81bd4dc20fdba8d5&amp;dn=Fight+Club+%281999%29+%5BSupplementary+Audio+for+Yify+Rips%5D&amp;tr=udp%3A%2F%2Ftracker.openbittorrent.com%3A80&amp;tr=udp%3A%2F%2Fopen.demonii.com%3A1337&amp;tr=udp%3A%2F%2Ftracker.coppersurfer.tk%3A6969&amp;tr=udp%3A%2F%2Fexodus.desync.com%3A6969","seeders":1,"leechers":0,"uploader":"jnb_bd","files":3,"time":1395336157,"description":"Those who downloaded 720p and 1080p version of Fight Club (1999) by Yify and found the audio having spontaneous annoying clicking sound, this torrent is for them. \nI got the original 5.1 and 2.0 audio for this version from external source. I muxed it with my copy and it worked like charm, So anyone interested in having the audio too, please feel free to download.\n\n\nSpecifications:\n\nAudio 1: Stereo 2.0\nFormat : AAC\nFormat/Info : Advanced Audio Codec\nFormat profile : LC\nDuration : 2h 19mn\nBit rate mode : Variable\nBit rate : 96.0 Kbps\nMaximum bit rate : 124 Kbps\nChannel count : 2 channels\nChannel positions : Front: L R\nSampling rate : 48.0 KHz\nStream size : 95.5 MiB\nWriting library : Nero AAC codec 1.5.4.0\n\nAudio 2: Surround 5.1\nFormat : AAC\nFormat/Info : Advanced Audio Codec\nFormat profile : LC\nDuration : 2h 19mn\nBit rate mode : Variable\nBit rate : 288 Kbps\nMaximum bit rate : 387 Kbps\nChannel(s) : 6 channels\nChannel positions : Front: L C R, Side: L R, LFE\nSampling rate : 48.0 KHz\nStream size : 284 MiB\nWriting library : Nero AAC codec 1.5.4.0\n\n\n\nUse YAMB to join the audio to the MP4 video file. Or use mkvmerge if you don't bother having mkv videos.\n\nNote: Please seed after downloading. My bandwidth is limited, so I wouldn't be able to seed for long. Seed, share and help others to download. Thank you.\n\nFor any query please contact:\n\n&lt;a class=&quot;__cf_email__&quot; href=&quot;/cdn-cgi/l/email-protection&quot; data-cfemail=&quot;e18b8f83be8385a19880898e8ecf828e8c&quot;&gt;[email&amp;#160;protected]&lt;/a&gt;&lt;script cf-hash='f9e31' type=&quot;text/javascript&quot;&gt;\n/* &lt;![CDATA[ */!function(){try{var t=&quot;currentScript&quot;in document?document.currentScript:function(){for(var t=document.getElementsByTagName(&quot;script&quot;),e=t.length;e--;)if(t[e].getAttribute(&quot;cf-hash&quot;))return t[e]}();if(t&amp;&amp;t.previousSibling){var e,r,n,i,c=t.previousSibling,a=c.getAttribute(&quot;data-cfemail&quot;);if(a){for(e=&quot;&quot;,r=parseInt(a.substr(0,2),16),n=2;a.length-n;n+=2)i=parseInt(a.substr(n,2),16)^r,e+=String.fromCharCode(i);e=document.createTextNode(e),c.parentNode.replaceChild(e,c)}}}catch(u){}}();/* ]]&gt; */&lt;/script&gt;\n\n\n\nView my subtitles @ http://subscene.com/u/682668/subtitles","torrent":{"xt":"urn:btih:a9c8938f1d57bcee027c76ae81bd4dc20fdba8d5","amp;dn":"Fight+Club+%281999%29+%5BSupplementary+Audio+for+Yify+Rips%5D","amp;tr":["udp%3A%2F%2Ftracker.openbittorrent.com%3A80","udp%3A%2F%2Fopen.demonii.com%3A1337","udp%3A%2F%2Ftracker.coppersurfer.tk%3A6969","udp%3A%2F%2Fexodus.desync.com%3A6969"],"infoHash":"a9c8938f1d57bcee027c76ae81bd4dc20fdba8d5","infoHashBuffer":{"type":"Buffer","data":[169,200,147,143,29,87,188,238,2,124,118,174,129,189,77,194,15,219,168,213]},"announce":[],"urlList":[]}}